<mxfile host="app.diagrams.net" modified="2023-10-16T04:55:34.731Z" agent="Mozilla/5.0 (Macintosh; Intel Mac OS X 10_15_7) AppleWebKit/537.36 (KHTML, like Gecko) Chrome/117.0.0.0 Safari/537.36" version="22.0.4" etag="fQ1vdyQznhkdDNOaei_J" type="github">
  <diagram name="Page-1" id="y3tzeOVp731qI052sBjQ">
    <mxGraphModel>
      <root>
        <mxCell id="0" />
        <mxCell id="1" parent="0" />
      </root>
    </mxGraphModel>
  </diagram>
</mxfile>
